<?xml version="1.0" encoding="iso-8859-1" standalone="yes"?><!-- Generator: Adobe Illustrator 18.1.1, SVG Export Plug-In . SVG Version: 6.00 Build 0)  --><svg xmlns="http://www.w3.org/2000/svg" xmlns:xlink="http://www.w3.org/1999/xlink" version="1.1" id="Capa_1" x="0px" y="0px" viewBox="0 0 476.243 476.243" style="enable-background:new 0 0 476.243 476.243;zoom: 1;" xml:space="preserve"><g><path d="M69.684,384.436 l116.312,-116.312 c11.096,-11.096 14.282,-26.938 9.933,-40.952 l36.01,-36.01 c10.762,8.763 21.923,15.769 32.896,20.882 c0.837,-2.495 2.13,-4.788 4.016,-6.674 l60.306,-60.306 c1.87,-1.87 4.178,-3.138 6.706,-3.942 c-7.381,-15.867 -18.696,-32.173 -33.555,-47.032 c-15.152,-15.152 -31.807,-26.654 -47.975,-34.018 c-0.845,2.341 -2.065,4.511 -3.853,6.308 l-60.306,60.306 c-1.78,1.78 -3.902,3.081 -6.267,3.95 c5.145,11.266 12.331,22.752 21.338,33.823 l-36.01,36.01 c-14.014,-4.349 -29.856,-1.162 -40.952,9.933 L11.955,326.715 c-15.94,15.94 -15.94,41.781 0,57.721 C27.895,400.376 53.744,400.376 69.684,384.436  z " style="fill:#EF6C00;"></path><path d="M274.589,211.127 c-1.122,1.122 -1.837,2.544 -2.276,4.121 c-1.496,5.414 0.91,12.9 6.576,18.566 c4.438,4.43 10.128,7.08 15.233,7.08 c2.138,0 5.162,-0.48 7.454,-2.772 l18.647,-18.647 l23.012,-23.012 l18.647,-18.647 c2.284,-2.284 3.211,-5.779 2.593,-9.836 c-0.683,-4.519 -3.138,-9.08 -6.901,-12.843 c-4.438,-4.43 -10.128,-7.08 -15.225,-7.08 c-0.984,0 -2.162,0.13 -3.365,0.463 c-1.414,0.39 -2.861,1.073 -4.097,2.317 L274.589,211.127  z " style="fill:#EF6C00;"></path><path d="M176.949,123.728 c1.105,0 2.455,-0.146 3.82,-0.593 c1.26,-0.415 2.536,-1.081 3.642,-2.187 l60.306,-60.306 c1.008,-1.008 1.658,-2.284 2.113,-3.666 c1.772,-5.438 -0.585,-13.185 -6.422,-19.013 c-4.438,-4.43 -10.128,-7.08 -15.225,-7.08 c-2.138,0 -5.162,0.48 -7.454,2.772 l-20.549,20.549 l-19.216,19.208 l-20.549,20.549 c-4.975,4.983 -3.008,15.371 4.308,22.687 C166.162,121.078 171.852,123.728 176.949,123.728  z " style="fill:#EF6C00;"></path><path d="M300.438,387.313 c9.892,-0.975 20.5,-1.252 31.579,-1.252 c4.723,0 9.559,0.033 14.485,0.073 c10.209,0.081 21.004,0.081 31.214,0 c4.926,-0.041 9.762,-0.073 14.485,-0.073 c11.079,0 21.687,0.276 31.579,1.252 v-23.589 H300.438 V387.313  z " style="fill:#EF6C00;"></path><path d="M392.202,394.19 c-4.698,0 -9.51,0.033 -14.42,0.073 c-10.258,0.073 -21.086,0.073 -31.336,0 c-4.91,-0.041 -9.722,-0.073 -14.42,-0.073 c-11.502,0 -22.053,0.228 -31.579,1.13 c-31.417,2.967 -51.129,13.567 -52.47,50.04 h228.267 c-1.341,-36.473 -21.053,-47.064 -52.47,-50.039 C414.255,394.418 403.695,394.19 392.202,394.19  z " style="fill:#EF6C00;"></path></g><g></g><g></g><g></g><g></g><g></g><g></g><g></g><g></g><g></g><g></g><g></g><g></g><g></g><g></g><g></g></svg>